<svg xmlns="http://www.w3.org/2000/svg" viewBox="0 0 180 80"><defs><style>.cls-1{fill:#d31f21;}.cls-2{fill:#817d7e;}</style></defs><polygon class="cls-1" points="0 0 0 79 79.35 79 79.35 65.88 75.57 65.88 75.57 75.24 3.78 75.24 3.78 3.76 75.57 3.76 75.57 13.15 79.35 13.15 79.35 0 0 0"/><path class="cls-2" d="M136.23,20.18c-11.92,0-18.95,9.32-18.95,19.19,0,11,8.33,19.18,18.74,19.18a18.8,18.8,0,0,0,19.22-19.18C155.24,29.17,147.79,20.18,136.23,20.18ZM136.07,55a15.21,15.21,0,0,1-15.28-15.62c0-8,5.73-15.63,15.45-15.63,9.41,0,15.48,7.32,15.48,15.63A15.31,15.31,0,0,1,136.07,55Z"/><path class="cls-2" d="M87.48,57.63H84L99.13,21.2h2.74L117,57.63h-3.66L109,47.07H91.81Zm12.87-31.45L93,44.09h14.7Z"/><path class="cls-2" d="M159.74,51c13.22,13.12,26.46-6.16,9-11.06-18.26-6.27-4.88-27.59,9.6-16.51l-.67,2.85c-12-9.28-22,6-7.66,10.39,14.13,2.78,12.52,21.77-.55,21.73a14.56,14.56,0,0,1-10.38-4.06Z"/><path class="cls-2" d="M115,78.75h-1.27l5.56-13.4h1l5.56,13.4h-1.35l-1.61-3.89h-6.3Zm4.74-11.57L117,73.77h5.41Z"/><path class="cls-2" d="M124.52,66.44V65.35h10.83v1.09h-4.8V78.75h-1.23V66.44Z"/><path class="cls-2" d="M144.63,65.35v1.09h-6.39V71.5h5.27v1.09h-5.27v5.06h6.39v1.1H137V65.35Z"/><path class="cls-2" d="M148.33,65.35v12.3h6.4v1.1H147.1V65.35Z"/><path class="cls-2" d="M157.62,65.35v13.4h-1.24V65.35Z"/><path class="cls-2" d="M168.16,65.35v1.09h-6.39V71.5H167v1.09h-5.27v5.06h6.39v1.1h-7.63V65.35Z"/><path class="cls-2" d="M180,78.75h-1.46l-3.86-5.54h-2.82v5.54h-1.23V65.35h4.17c5-.22,5.62,6.77,1.19,7.73Zm-2.29-9.47c0-3.32-3.24-2.85-5.85-2.84v5.68C174.44,72.14,177.8,72.57,177.71,69.28Z"/><path class="cls-2" d="M136.23,20.18c-11.92,0-18.95,9.32-18.95,19.19,0,11,8.33,19.18,18.74,19.18a18.8,18.8,0,0,0,19.22-19.18C155.24,29.17,147.79,20.18,136.23,20.18ZM136.07,55a15.21,15.21,0,0,1-15.28-15.62c0-8,5.73-15.63,15.45-15.63,9.41,0,15.48,7.32,15.48,15.63A15.31,15.31,0,0,1,136.07,55Z"/><path class="cls-2" d="M87.48,57.63H84L99.13,21.2h2.74L117,57.63h-3.66L109,47.07H91.81Zm12.87-31.45L93,44.09h14.7Z"/><path class="cls-2" d="M159.74,51c13.22,13.12,26.46-6.16,9-11.06-18.26-6.27-4.88-27.59,9.6-16.51l-.67,2.85c-12-9.28-22,6-7.66,10.39,14.13,2.78,12.52,21.77-.55,21.73a14.56,14.56,0,0,1-10.38-4.06Z"/><path class="cls-2" d="M115,78.75h-1.27l5.56-13.4h1l5.56,13.4h-1.35l-1.61-3.89h-6.3Zm4.74-11.57L117,73.77h5.41Z"/><path class="cls-2" d="M124.52,66.44V65.35h10.83v1.09h-4.8V78.75h-1.23V66.44Z"/><path class="cls-2" d="M144.63,65.35v1.09h-6.39V71.5h5.27v1.09h-5.27v5.06h6.39v1.1H137V65.35Z"/><path class="cls-2" d="M148.33,65.35v12.3h6.4v1.1H147.1V65.35Z"/><path class="cls-2" d="M157.62,65.35v13.4h-1.24V65.35Z"/><path class="cls-2" d="M168.16,65.35v1.09h-6.39V71.5H167v1.09h-5.27v5.06h6.39v1.1h-7.63V65.35Z"/><path class="cls-2" d="M180,78.75h-1.46l-3.86-5.54h-2.82v5.54h-1.23V65.35h4.17c5-.22,5.62,6.77,1.19,7.73Zm-2.29-9.47c0-3.32-3.24-2.85-5.85-2.84v5.68C174.44,72.14,177.8,72.57,177.71,69.28Z"/><polygon class="cls-2" points="75.58 21.21 75.58 50.9 51.23 21.21 48.41 21.21 48.41 57.64 52.16 57.64 52.16 27.95 76.52 57.64 79.3 57.63 79.3 22.34 79.3 21.2 75.58 21.21"/></svg>