<svg version="1.1" id="Calque_1" xmlns="http://www.w3.org/2000/svg" x="0" y="0" viewBox="0 0 300 96.09" width="180" height="58" xml:space="preserve"><style>.st1{fill:#6d6467}.st2{fill:#424041}</style><path fill="#dc0814" d="M0 .89h64.62v64.32H0z"/><path class="st1" d="M130.44 65.12h-5.71L81.32 12.16v52.96h-6.51V.85h5.71l43.42 52.96V.85h6.51v64.27zM194.26 65.12h-6.95l-8.83-20.64h-27.81l-8.65 20.64h-6.95L162.08.47h4.46l27.72 64.65zM164.3 11.59l-11.05 26.67h22.46L164.3 11.59zM194.7 32.98C194.7 16.02 206.73 0 227.15 0c19.79 0 32.54 15.45 32.54 32.98 0 19.22-14.62 32.98-32.9 32.98-17.83.01-32.09-14.03-32.09-32.98zm57.85-.18c0-12.72-9.27-26.11-25.41-26.11-15.6 0-25.32 12.53-25.32 26.39 0 15.64 11.86 26.2 24.87 26.2 14.54 0 25.86-11.03 25.86-26.48zM296.49 12.25c-2.76-2.17-7.67-5.84-13.82-5.84-9.63 0-11.32 7.54-11.32 9.9 0 6.5 6.15 9.8 11.5 12.63 11.86 6.22 16.14 9.9 16.14 19.41 0 12.16-9.81 17.62-17.74 17.62-5.71 0-11.23-2.36-15.96-5.84v-8.67c3.21 3.39 9.01 8.11 15.78 8.11 8.56 0 11.32-6.88 11.32-10.74 0-4.05-1.16-7.92-13.64-14.13-10.25-5.09-14-10.46-14-17.62C264.75 6.97 272.6 0 282.76 0c6.78 0 11.32 2.73 13.73 4.24v8.01z"/><g><path class="st2" d="M207.79 96.09h-2.14l-2.71-6.35h-8.55l-2.65 6.35h-2.14l8.31-19.88h1.37l8.51 19.88zm-9.21-16.46l-3.4 8.2h6.9l-3.5-8.2zM222.85 78.24h-6.74v17.85h-2.06V78.24h-6.74v-1.91h15.54v1.91zM238.03 78.24h-8.36v6.93h8.11v1.91h-8.11v7.1h8.58v1.91h-10.63V76.33h10.42v1.91zM246.07 94.18h8.83v1.91h-10.88V76.33h2.05v17.85zM262.08 96.09h-2.06V76.33h2.06v19.76zM279.69 78.24h-8.36v6.93h8.11v1.91h-8.11v7.1h8.57v1.91h-10.63V76.33h10.41v1.91zM290.46 76.33c4.85 0 6.17 2.92 6.17 5.3 0 2.69-1.56 4.14-3.34 4.84 1.34.93 2.27 2.46 4.57 6.28.79 1.33 1.21 1.94 2.14 3.33h-2.47l-1.78-2.98c-.74-1.25-1.56-2.49-2.41-3.65-1.21-1.63-2.25-2.41-4.25-2.41h-1.34v9.04h-2.06V76.33h4.77zm-2.71 1.91v6.9h2.41c2.66 0 4.28-1.22 4.28-3.47 0-2.06-1.43-3.42-4.28-3.42h-2.41z"/></g></svg>