<?xml version="1.0" encoding="UTF-8"?><svg id="Calque_1" xmlns="http://www.w3.org/2000/svg" viewBox="0 0 176 80"><defs><style>.cls-1{fill:#d31f21;}.cls-2{fill:#817d7e;}</style></defs><polygon class="cls-1" points="0 0 0 80 80 80 80 66.71 76.19 66.71 76.19 76.19 3.81 76.19 3.81 3.81 76.19 3.81 76.19 13.32 80 13.32 80 0 0 0"/><path class="cls-2" d="M134.47,21c-11.62,0-18.47,8.99-18.47,18.5,0,10.61,8.12,18.49,18.26,18.49,10.12.23,18.5-7.7,18.73-17.71,0-.26,0-.52,0-.78,0-9.83-7.26-18.5-18.53-18.5ZM134.31,54.57c-8.19.04-14.86-6.49-14.9-14.59,0-.16,0-.31,0-.47,0-7.71,5.58-15.07,15.06-15.07s15.09,7.06,15.09,15.07c.17,8.15-6.37,14.89-14.61,15.06-.21,0-.43,0-.64,0Z"/><path class="cls-2" d="M87.48,58h-3.48l15.13-37h2.74l15.13,37h-3.66l-4.34-10.73h-17.19l-4.33,10.73ZM100.35,26.06l-7.35,18.19h14.7l-7.35-18.19Z"/><path class="cls-2" d="M156.63,50.81c12.67,12.74,25.36-5.98,8.62-10.74-17.5-6.09-4.68-26.78,9.2-16.03l-.64,2.77c-11.5-9.01-21.08,5.82-7.34,10.09,13.54,2.7,12,21.13-.53,21.1-3.7.07-7.28-1.34-9.95-3.94l.63-3.24Z"/><path class="cls-2" d="M113.26,80h-1.26l5.5-14h.99l5.5,14h-1.34l-1.59-4.06h-6.24l-1.57,4.06ZM117.95,67.91l-2.71,6.89h5.36l-2.64-6.89Z"/><path class="cls-2" d="M123,67.14v-1.14h11v1.14h-4.88v12.86h-1.25v-12.86h-4.88Z"/><path class="cls-2" d="M143,66v1.14h-6.7v5.29h5.53v1.14h-5.53v5.29h6.7v1.15h-8v-14h8Z"/><path class="cls-2" d="M146.29,66v12.85h6.71v1.15h-8v-14h1.29Z"/><path class="cls-2" d="M155.25,66v14h-1.25v-14h1.25Z"/><path class="cls-2" d="M165,66v1.14h-6.66v5.29h5.46v1.14h-5.5v5.29h6.66v1.15h-7.96v-14h8Z"/><path class="cls-2" d="M176,80h-1.4l-3.71-5.79h-2.71v5.79h-1.18v-13.99h4.01c4.8-.23,5.4,7.07,1.14,8.07l3.85,5.92ZM173.8,70.11c0-3.47-3.11-2.98-5.62-2.97v5.93c2.48.02,5.71.47,5.62-2.97Z"/><polygon class="cls-2" points="76.27 21.01 76.27 51.16 51.83 21.01 49 21.01 49 58 52.76 58 52.76 27.85 77.21 58 80 57.99 80 22.16 80 21 76.27 21.01"/></svg>